# xmcd CD database file
#
# Track frame offsets:
#	150
#	34552
#	64312
#	98928
#	129441
#	148204
#	170464
#
# Disc length: 2657 seconds
#
# Revision: 0
# Processed by: cddbd v1.5.2PL0 Copyright (c) Steve Scherf et al.
# Submitted via: CDex 1.79
#
DISCID=610a5f07
DTITLE=Bill Johnson - Live
DYEAR=1900
DGENRE=Blues
TTITLE0=Everyday I Have The Blues
TTITLE1=Rock Me Baby
TTITLE2=Hurtin' Man
TTITLE3=Too Hot To Handle
TTITLE4=How Can You Stand It?
TTITLE5=I Feel Like Lovin'
TTITLE6=Cme On Baby
EXTD=
EXTT0=
EXTT1=
EXTT2=
EXTT3=
EXTT4=
EXTT5=
EXTT6=
PLAYORDER=
